<svg width="1479" height="1392" viewBox="0 0 1479 1392" fill="none" xmlns="http://www.w3.org/2000/svg">
<path d="M1478.71 309.143C1478.71 141.94 1339.76 0.214355 1172.56 0.214355H1125.67C1003.22 0.214355 895.102 80.4973 848.003 189.468C1075.15 229.717 1263.33 394.136 1345.12 611.221C1363.95 585.959 1381.51 557.485 1387.93 525.8H1435.46C1459.44 525.8 1478.71 506.318 1478.71 482.555C1478.71 433.742 1462.44 388.784 1435.25 352.603C1459.22 352.603 1478.49 333.121 1478.49 309.357L1478.71 309.143Z" fill="#E76B38"/>
<path d="M43.4598 525.586H93.9846C99.9791 554.702 113.253 581.035 129.951 605.013C210.448 385.358 400.773 227.362 630.703 188.612C583.39 79.8551 475.489 0 353.245 0H306.36C139.157 0 0.21397 141.726 0.21397 308.929C0.21397 332.907 19.6961 352.175 43.4598 352.175C16.2707 388.356 0 433.314 0 482.126C0 506.104 19.4819 525.372 43.2457 525.372L43.4598 525.586Z" fill="#E76B38"/>
<path d="M739.245 612.291C682.084 612.291 609.294 758.085 609.294 872.194C609.294 943.485 632.415 958.9 739.245 958.9C846.075 958.9 869.197 943.485 869.197 872.194C869.197 758.085 796.407 612.291 739.245 612.291Z" fill="#E76B38"/>
<path d="M1302.51 850.571C1302.51 537.146 1057.59 274.888 756.587 265.897C436.525 256.477 176.194 512.312 176.194 828.734V915.439C176.194 1041.97 238.066 1140.23 332.907 1195.47C393.708 1230.79 463.714 1244.28 532.437 1238.93C559.626 1328.63 642.264 1392 739.46 1392C836.656 1392 918.866 1328.84 946.269 1239.57C955.046 1240.21 963.61 1242.14 972.388 1242.14C1032.55 1242.14 1092.92 1226.51 1146.01 1195.47C1241.07 1140.23 1302.73 1041.75 1302.73 915.439V850.571H1302.51ZM479.343 698.997C455.365 698.997 436.097 679.515 436.097 655.751C436.097 631.988 455.579 612.505 479.343 612.505C503.107 612.505 522.589 631.988 522.589 655.751C522.589 679.515 503.107 698.997 479.343 698.997ZM739.246 1045.39C663.459 1045.39 522.589 1045.39 522.589 872.194C522.589 734.321 608.866 525.585 739.246 525.585C869.625 525.585 955.903 734.107 955.903 872.194C955.903 1045.39 815.033 1045.39 739.246 1045.39ZM999.149 698.997C975.171 698.997 955.903 679.515 955.903 655.751C955.903 631.988 975.385 612.505 999.149 612.505C1022.91 612.505 1042.39 631.988 1042.39 655.751C1042.39 679.515 1022.91 698.997 999.149 698.997Z" fill="#E76B38"/>
</svg>
